<svg width="174" height="57" viewBox="0 0 174 57" fill="none" xmlns="http://www.w3.org/2000/svg">
<path d="M84.5293 26.7907V29.9812H117.55C119.199 29.9812 122.942 29.3431 124.729 26.7907H84.5293Z" fill="black"/>
<path d="M85.3269 16.2622H125.846V24.3979H84.5293V22.3241H115.955C117.391 22.3241 118.029 19.2931 115.955 18.336H90.2721C88.5173 18.336 87.1135 17.7936 85.3269 16.2622Z" fill="black"/>
<path d="M84.2104 5.41464C83.7318 7.00987 83.0618 10.9341 84.2104 13.8694H124.25C123.506 13.0717 120.996 11.4765 116.912 11.4765H93.6221C93.0371 11.317 92.1864 10.9979 92.1864 9.56224C92.1864 8.41367 92.9308 7.91384 93.303 7.80749H96.4935H124.729V5.41464H84.2104Z" fill="black"/>
<path d="M93.4627 0.309925C97.9293 0.182307 116.168 0.256751 124.729 0.309925V3.0218L85.1675 3.02181C86.0715 2.17102 88.9961 0.437543 93.4627 0.309925Z" fill="black"/>
<path d="M164.45 3.0218H173.224V0.150391H164.45V3.0218Z" fill="black"/>
<path d="M164.45 14.0289H173.224V5.25512H164.45V14.0289Z" fill="black"/>
<path d="M129.834 16.2622V24.5574H173.224V16.2622H164.45V20.2503C164.503 20.8884 164.004 22.1645 161.579 22.1645H140.043C139.458 22.1114 138.448 21.8455 138.448 20.2503V16.2622H129.834Z" fill="black"/>
<path d="M129.834 5.25512V14.0289H138.607V5.25512H129.834Z" fill="black"/>
<path d="M129.834 0.309913V3.0218H138.607V0.309913H129.834Z" fill="black"/>
<path d="M130.791 26.7907C131.269 27.801 133.79 29.8535 140.043 29.9812H164.45C165.886 29.8216 169.204 29.1835 170.991 27.9074C171.756 27.2693 172.16 26.8971 172.267 26.7907H130.791Z" fill="black"/>
<path d="M50.0714 3.02345H66.3427C65.7578 2.33218 64.3008 0.853934 63.1522 0.471079C62.0037 0.0882246 58.4548 -0.183979 55.6547 0.152058C52.3047 0.554078 51.188 1.90681 50.0714 3.02345Z" fill="black"/>
<path d="M53.1023 14.0305L55.6547 9.24485C56.1864 8.34089 57.7285 6.88392 59.6427 8.28772C61.4294 10.4572 62.7268 13.0202 63.1522 14.0305H72.7236L67.4594 5.25676H49.1142L43.85 14.0305H53.1023Z" fill="black"/>
<path d="M37.7881 24.559H78.626L73.6808 16.4234H64.4284L64.7475 17.3805H51.3476L51.8261 16.2639H42.7333L37.7881 24.559Z" fill="black"/>
<path d="M34.5977 29.9828L36.6715 26.7924H46.5619L44.4881 29.9828H34.5977Z" fill="black"/>
<path d="M70.0117 26.7924L71.7665 29.9828H81.8164L79.7426 26.7924H70.0117Z" fill="black"/>
<path d="M0.777344 5.25771V8.44816H17.2082V14.0315H26.1415V8.44816H42.0938V5.25771H0.777344Z" fill="black"/>
<path d="M17.2082 16.1053V24.56H26.1415V16.1053H17.2082Z" fill="black"/>
<path d="M17.2082 26.6338V29.9837H26.1415V26.7933V26.6338H17.2082Z" fill="black"/>
<path d="M0.936867 0.3125V3.02439H42.0938V0.3125H0.936867Z" fill="black"/>
<path fill-rule="evenodd" clip-rule="evenodd" d="M153.601 35.5684H0.935547V56.3063L143.546 56.3062L153.601 35.5684ZM147.065 56.3062L150.584 56.3063L160.639 35.5684H157.12L147.065 56.3062ZM154.103 56.3063L164.158 35.5684H168.179L157.622 56.3063H154.103ZM171.698 35.5684L161.141 56.3063H173.22V35.5684H171.698Z" fill="#FDE016"/>
<path d="M10.2228 52.2012V40.6351H11.6234V46.3729H11.759L16.9547 40.6351H18.7845L13.9276 45.8534L18.7845 52.2012H17.0902L13.0692 46.8247L11.6234 48.4512V52.2012H10.2228ZM23.1391 52.2012H21.6708L25.9177 40.6351H27.3635L31.6104 52.2012H30.142L26.6858 42.4649H26.5954L23.1391 52.2012ZM23.6813 47.6832H29.5999V48.9256H23.6813V47.6832ZM35.0954 52.2012V51.1846L41.3302 41.8775H35.0276V40.6351H43.0019V41.6516L36.767 50.9587H43.0696V52.2012H35.0954ZM47.9608 52.2012H46.4925L50.7394 40.6351H52.1852L56.4321 52.2012H54.9637L51.5075 42.4649H51.4171L47.9608 52.2012ZM48.503 47.6832H54.4216V48.9256H48.503V47.6832ZM60.3011 52.2012V40.6351H61.7017V46.3729H61.8372L67.0329 40.6351H68.8627L64.0058 45.8534L68.8627 52.2012H67.1684L63.1474 46.8247L61.7017 48.4512V52.2012H60.3011ZM72.743 52.2012V40.6351H74.1436V45.7856H80.3106V40.6351H81.7112V52.2012H80.3106V47.0281H74.1436V52.2012H72.743ZM92.9078 43.5266C92.8401 42.9543 92.5652 42.5101 92.0833 42.1938C91.6014 41.8775 91.0103 41.7194 90.31 41.7194C89.7979 41.7194 89.3499 41.8022 88.9659 41.9679C88.5856 42.1336 88.2882 42.3613 88.0736 42.6512C87.8627 42.9411 87.7573 43.2706 87.7573 43.6396C87.7573 43.9483 87.8307 44.2137 87.9776 44.4359C88.1282 44.6542 88.3202 44.8368 88.5536 44.9837C88.787 45.1267 89.0318 45.2453 89.2878 45.3395C89.5438 45.4298 89.7791 45.5032 89.9937 45.5597L91.1684 45.876C91.4696 45.955 91.8047 46.0642 92.1737 46.2035C92.5464 46.3428 92.9022 46.533 93.241 46.7739C93.5837 47.0111 93.866 47.3161 94.0882 47.6888C94.3103 48.0616 94.4214 48.519 94.4214 49.0612C94.4214 49.6862 94.2576 50.2509 93.93 50.7554C93.6062 51.2599 93.1319 51.6609 92.5069 51.9583C91.8856 52.2558 91.1308 52.4045 90.2422 52.4045C89.4139 52.4045 88.6967 52.2708 88.0905 52.0035C87.4881 51.7362 87.0137 51.3635 86.6673 50.8853C86.3247 50.4071 86.1308 49.8518 86.0857 49.2193H87.5314C87.5691 49.656 87.7159 50.0175 87.9719 50.3036C88.2317 50.586 88.5593 50.7968 88.9546 50.9361C89.3537 51.0717 89.7829 51.1394 90.2422 51.1394C90.7768 51.1394 91.2569 51.0528 91.6823 50.8797C92.1078 50.7027 92.4447 50.458 92.6932 50.1455C92.9417 49.8292 93.066 49.4603 93.066 49.0386C93.066 48.6545 92.9587 48.342 92.7441 48.1011C92.5295 47.8601 92.2471 47.6643 91.8969 47.5137C91.5468 47.3631 91.1684 47.2314 90.7618 47.1184L89.3386 46.7118C88.435 46.452 87.7197 46.0812 87.1926 45.5992C86.6655 45.1173 86.4019 44.4867 86.4019 43.7073C86.4019 43.0597 86.577 42.495 86.9271 42.0131C87.281 41.5274 87.7554 41.1509 88.3503 40.8836C88.9489 40.6125 89.6172 40.477 90.3552 40.477C91.1006 40.477 91.7633 40.6106 92.3431 40.8779C92.9229 41.1415 93.3822 41.5029 93.7211 41.9622C94.0637 42.4216 94.2444 42.943 94.2632 43.5266H92.9078ZM98.1591 41.8775V40.6351H106.834V41.8775H103.197V52.2012H101.796V41.8775H98.1591ZM110.186 52.2012H108.718L112.964 40.6351H114.41L118.657 52.2012H117.189L113.733 42.4649H113.642L110.186 52.2012ZM110.728 47.6832H116.647V48.9256H110.728V47.6832ZM131.698 40.6351V52.2012H130.342L124.04 43.12H123.927V52.2012H122.526V40.6351H123.882L130.207 49.7389H130.32V40.6351H131.698Z" fill="black"/>
</svg>
