<svg width="24" height="23" viewBox="0 0 24 23" fill="none" xmlns="http://www.w3.org/2000/svg">
<path d="M7.69192 22.8933H4.22252C2.19037 22.8933 0.537109 21.24 0.537109 19.2079V15.6756C0.537109 13.6435 2.19037 11.9902 4.22252 11.9902H7.69192C9.72406 11.9902 11.3773 13.6435 11.3773 15.6756V19.2079C11.3773 21.24 9.72406 22.8933 7.69192 22.8933ZM4.22252 13.9531C3.27271 13.9531 2.49997 14.7258 2.49997 15.6756V19.2079C2.49997 20.1577 3.27271 20.9304 4.22252 20.9304H7.69192C8.64177 20.9304 9.41446 20.1577 9.41446 19.2079V15.6756C9.41446 14.7258 8.64172 13.9531 7.69192 13.9531H4.22252ZM7.69192 10.9559H4.22252C2.19037 10.9559 0.537109 9.30263 0.537109 7.27045V3.73814C0.537109 1.706 2.19037 0.0527344 4.22252 0.0527344H7.69192C9.72406 0.0527344 11.3773 1.706 11.3773 3.73814V7.27045C11.3773 9.30263 9.72406 10.9559 7.69192 10.9559ZM4.22252 2.0156C3.27271 2.0156 2.49997 2.78834 2.49997 3.73814V7.27045C2.49997 8.22029 3.27271 8.99299 4.22252 8.99299H7.69192C8.64177 8.99299 9.41446 8.22025 9.41446 7.27045V3.73814C9.41446 2.78829 8.64172 2.0156 7.69192 2.0156H4.22252ZM20.4329 21.9119C20.4329 21.3699 19.9934 20.9304 19.4514 20.9304H16.548C15.4189 20.9304 14.5003 20.0022 14.5003 18.8613V16.0222C14.5003 14.8813 15.4189 13.953 16.548 13.953H19.3671C20.4962 13.953 21.4148 14.8813 21.4148 16.0222V18.9462C21.4148 19.4882 21.8542 19.9276 22.3962 19.9276C22.9382 19.9276 23.3776 19.4882 23.3776 18.9462V16.0222C23.3776 13.7989 21.5785 11.9901 19.3671 11.9901H16.548C14.3366 11.9901 12.5375 13.7989 12.5375 16.0222V18.8613C12.5375 21.0845 14.3366 22.8933 16.548 22.8933H19.4514C19.9935 22.8933 20.4329 22.4539 20.4329 21.9119ZM19.6923 10.9559H16.2229C14.1907 10.9559 12.5375 9.30263 12.5375 7.27049V3.73814C12.5375 1.706 14.1907 0.0527344 16.2229 0.0527344H19.6923C21.7244 0.0527344 23.3777 1.706 23.3777 3.73814V7.27045C23.3777 9.30263 21.7244 10.9559 19.6923 10.9559ZM16.2229 2.0156C15.2731 2.0156 14.5003 2.78834 14.5003 3.73814V7.27045C14.5003 8.22029 15.2731 8.99299 16.2229 8.99299H19.6923C20.6421 8.99299 21.4148 8.22025 21.4148 7.27045V3.73814C21.4148 2.78834 20.6421 2.0156 19.6923 2.0156H16.2229Z" fill="#717579"/>
<path d="M22.1474 22.5859C22.6895 22.5859 23.1289 22.1465 23.1289 21.6045C23.1289 21.0624 22.6895 20.623 22.1474 20.623C21.6054 20.623 21.166 21.0624 21.166 21.6045C21.166 22.1465 21.6054 22.5859 22.1474 22.5859Z" fill="#717579"/>
</svg>
