<svg fill="#717579" height="20" viewBox="0 0 24 20" width="24" xmlns="http://www.w3.org/2000/svg"><g fill="#717579"><path d="m18.0269.642578h-12.23662c-2.92355 0-5.301999 2.379752-5.301999 5.304902v7.76892c0 2.9251 2.378449 5.3049 5.301999 5.3049h12.23662c.542 0 .9814-.4394.9814-.9814s-.4394-.9815-.9814-.9815h-12.23662c-1.84121 0-3.33914-1.4992-3.33914-3.342v-7.76892c0-1.84281 1.49793-3.34204 3.33914-3.34204h12.23662c1.8411 0 3.3391 1.49923 3.3391 3.34204v.89301c-.0463-.00669-.0936-.0103-.1417-.0103h-4.7755c-.8045 0-1.5715.41555-2.1042 1.14006-.4739.64449-.7349 1.48544-.7349 2.36785 0 .8825.261 1.7234.7349 2.3679.5327.7245 1.2997 1.1401 2.1042 1.1401h4.7755c.0472 0 .0936-.0035.139-.01-.013.3727-.0862.736-.2192 1.0816-.1947.5058.0575 1.0737.5633 1.2685.5059.1948 1.0738-.0575 1.2685-.5634.2342-.6083.353-1.2497.353-1.9063v-7.76893c0-2.92524-2.3785-5.304992-5.302-5.304992zm-1.5781 11.240522c-.4136 0-.8762-.6607-.8762-1.5451 0-.88427.4626-1.54504.8762-1.54504h4.7755c.0481 0 .0954-.00361.1417-.0103v3.11074c-.0463-.0067-.0936-.0103-.1417-.0103z"/><path d="m20.8974 18.832c.5421 0 .9815-.4394.9815-.9814 0-.5421-.4394-.9815-.9815-.9815-.542 0-.9814.4394-.9814.9815 0 .542.4394.9814.9814.9814z"/></g></svg>