<svg width="20" height="24" viewBox="0 0 20 24" fill="#717579" xmlns="http://www.w3.org/2000/svg">
<path d="M16.2388 10.6127C16.7808 10.6127 17.2202 11.0521 17.2202 11.5941C17.2202 12.1361 16.7808 12.5755 16.2388 12.5755H12.1748C11.6328 12.5755 11.1934 12.1361 11.1934 11.5941C11.1934 11.0521 11.6328 10.6127 12.1748 10.6127H16.2388ZM1.11229 12.5755C0.570273 12.5755 0.130859 12.1361 0.130859 11.5941C0.130859 11.0521 0.570273 10.6127 1.11229 10.6127H3.07734C3.50127 9.1806 4.82732 8.13256 6.39413 8.13256C8.30154 8.13256 9.85336 9.68541 9.85336 11.5941C9.85336 13.5028 8.30154 15.0557 6.39413 15.0557C4.82732 15.0557 3.50132 14.0076 3.07734 12.5755H1.11229ZM4.89771 11.5941C4.89771 12.4205 5.56897 13.0928 6.39408 13.0928C7.2192 13.0928 7.89045 12.4205 7.89045 11.5941C7.89045 10.7677 7.2192 10.0954 6.39408 10.0954C5.56901 10.0954 4.89771 10.7678 4.89771 11.5941ZM1.50879 4.61681H8.22481C8.76683 4.61681 9.20624 4.1774 9.20624 3.63538C9.20624 3.09336 8.76683 2.65395 8.22481 2.65395H1.50879C0.966771 2.65395 0.527358 3.09336 0.527358 3.63538C0.527358 4.1774 0.966771 4.61681 1.50879 4.61681ZM9.75334 3.63538C9.75334 1.72668 11.3052 0.173828 13.2126 0.173828C14.8673 0.173828 16.2535 1.34262 16.5921 2.89833H18.4945C19.0365 2.89833 19.4759 3.33774 19.4759 3.87976C19.4759 4.42177 19.0365 4.86119 18.4945 4.86119H16.4471C15.9514 6.16649 14.6889 7.09693 13.2127 7.09693C11.3052 7.09693 9.75334 5.54409 9.75334 3.63538ZM11.7162 3.63538C11.7162 4.46174 12.3875 5.13407 13.2126 5.13407C14.0377 5.13407 14.709 4.46179 14.709 3.63538C14.709 2.80897 14.0377 2.13669 13.2126 2.13669C12.3875 2.13669 11.7162 2.80902 11.7162 3.63538ZM8.15812 18.5714H1.4421C0.900078 18.5714 0.460665 19.0108 0.460665 19.5529C0.460665 20.0949 0.900078 20.5343 1.4421 20.5343H8.15812C8.70014 20.5343 9.13955 20.0949 9.13955 19.5529C9.13955 19.0108 8.70018 18.5714 8.15812 18.5714ZM19.4092 19.7972C19.4092 20.3392 18.9697 20.7787 18.4277 20.7787H16.3804C15.8847 22.084 14.6221 23.0144 13.1459 23.0144C11.2384 23.0144 9.68665 21.4616 9.68665 19.5529C9.68665 17.6441 11.2384 16.0913 13.1459 16.0913C14.8005 16.0913 16.1868 17.2601 16.5254 18.8158H18.4277C18.9697 18.8158 19.4092 19.2552 19.4092 19.7972ZM14.6423 19.5529C14.6423 18.7265 13.971 18.0541 13.1459 18.0541C12.3208 18.0541 11.6495 18.7264 11.6495 19.5529C11.6495 20.3793 12.3208 21.0515 13.1459 21.0515C13.971 21.0515 14.6423 20.3793 14.6423 19.5529Z" fill="#717579"/>
<path d="M18.6728 12.5761C19.2149 12.5761 19.6543 12.1367 19.6543 11.5947C19.6543 11.0527 19.2149 10.6133 18.6728 10.6133C18.1308 10.6133 17.6914 11.0527 17.6914 11.5947C17.6914 12.1367 18.1308 12.5761 18.6728 12.5761Z" fill="#717579"/>
</svg>
