<svg width="20" height="24" viewBox="0 0 20 24" fill="#717579" xmlns="http://www.w3.org/2000/svg">
<path d="M13.2683 9.5486C13.9164 9.02487 14.4417 8.34251 14.7815 7.54112C15.0524 6.9023 15.1897 6.22431 15.1897 5.52593C15.1897 2.67278 12.8639 0.351562 10.005 0.351562C7.14622 0.351562 4.82041 2.67278 4.82041 5.52593C4.82041 6.33169 5.00112 7.10408 5.3576 7.82168C5.69067 8.49222 6.16479 9.08014 6.74463 9.54851C3.44854 9.63202 0.792969 12.3338 0.792969 15.6428V17.0957C0.792969 20.4573 3.53339 23.1921 6.90184 23.1921H11.5043C12.0463 23.1921 12.4857 22.7527 12.4857 22.2107C12.4857 21.6687 12.0463 21.2293 11.5043 21.2293H6.90184C4.61569 21.2293 2.75583 19.375 2.75583 17.0958V15.6429C2.75583 13.3636 4.61573 11.5094 6.90184 11.5094H13.1082C15.3943 11.5094 17.2542 13.3636 17.2542 15.6429V16.3693C17.2542 17.8133 16.6161 19.1732 15.5036 20.1004C15.0872 20.4473 15.031 21.0662 15.378 21.4826C15.725 21.899 16.3438 21.9552 16.7603 21.6082C18.3216 20.307 19.2171 18.3974 19.2171 16.3693V15.6428C19.2171 12.3347 16.563 9.63358 13.2683 9.5486ZM10.005 2.31442C11.7815 2.31442 13.2268 3.75508 13.2268 5.52593C13.2268 5.95959 13.1419 6.37982 12.9744 6.77494C12.4689 7.96711 11.3034 8.73744 10.005 8.73744C8.77084 8.73744 7.66366 8.05196 7.11553 6.94847C6.89506 6.50464 6.78327 6.02602 6.78327 5.52593C6.78327 3.75508 8.22856 2.31442 10.005 2.31442Z" fill="#717579"/>
<path d="M13.9795 22.9687C14.5215 22.9687 14.9609 22.5293 14.9609 21.9873C14.9609 21.4453 14.5215 21.0059 13.9795 21.0059C13.4374 21.0059 12.998 21.4453 12.998 21.9873C12.998 22.5293 13.4374 22.9687 13.9795 22.9687Z" fill="#717579"/>
</svg>
