<svg width="24" height="24" viewBox="0 0 24 24" fill="#717579" xmlns="http://www.w3.org/2000/svg">
<g clip-path="url(#clip0_74_2366)">
<path d="M18.2388 11.0717C18.7808 11.0717 19.2202 11.5111 19.2202 12.0531C19.2202 12.5951 18.7808 13.0345 18.2388 13.0345H14.1748C13.6328 13.0345 13.1934 12.5951 13.1934 12.0531C13.1934 11.5111 13.6328 11.0717 14.1748 11.0717H18.2388ZM3.11229 13.0345C2.57027 13.0345 2.13086 12.5951 2.13086 12.0531C2.13086 11.5111 2.57027 11.0717 3.11229 11.0717H5.07734C5.50127 9.63958 6.82732 8.59155 8.39413 8.59155C10.3015 8.59155 11.8534 10.1444 11.8534 12.0531C11.8534 13.9618 10.3015 15.5147 8.39413 15.5147C6.82732 15.5147 5.50132 14.4666 5.07734 13.0345H3.11229ZM6.89771 12.0531C6.89771 12.8795 7.56897 13.5518 8.39408 13.5518C9.2192 13.5518 9.89045 12.8795 9.89045 12.0531C9.89045 11.2267 9.2192 10.5544 8.39408 10.5544C7.56901 10.5544 6.89771 11.2267 6.89771 12.0531ZM3.50879 5.0758H10.2248C10.7668 5.0758 11.2062 4.63638 11.2062 4.09436C11.2062 3.55235 10.7668 3.11293 10.2248 3.11293H3.50879C2.96677 3.11293 2.52736 3.55235 2.52736 4.09436C2.52736 4.63638 2.96677 5.0758 3.50879 5.0758ZM11.7533 4.09436C11.7533 2.18566 13.3052 0.632812 15.2126 0.632812C16.8673 0.632812 18.2535 1.80161 18.5921 3.35731H20.4945C21.0365 3.35731 21.4759 3.79672 21.4759 4.33874C21.4759 4.88076 21.0365 5.32017 20.4945 5.32017H18.4471C17.9514 6.62547 16.6889 7.55592 15.2127 7.55592C13.3052 7.55592 11.7533 6.00307 11.7533 4.09436ZM13.7162 4.09436C13.7162 4.92073 14.3875 5.59305 15.2126 5.59305C16.0377 5.59305 16.709 4.92077 16.709 4.09436C16.709 3.26795 16.0377 2.59567 15.2126 2.59567C14.3875 2.59567 13.7162 3.268 13.7162 4.09436ZM10.1581 19.0304H3.4421C2.90008 19.0304 2.46066 19.4698 2.46066 20.0118C2.46066 20.5539 2.90008 20.9933 3.4421 20.9933H10.1581C10.7001 20.9933 11.1395 20.5539 11.1395 20.0118C11.1395 19.4698 10.7002 19.0304 10.1581 19.0304ZM21.4092 20.2562C21.4092 20.7982 20.9697 21.2376 20.4277 21.2376H18.3804C17.8847 22.5429 16.6221 23.4734 15.1459 23.4734C13.2384 23.4734 11.6867 21.9205 11.6867 20.0118C11.6867 18.1031 13.2384 16.5502 15.1459 16.5502C16.8005 16.5502 18.1868 17.7191 18.5254 19.2747H20.4277C20.9697 19.2748 21.4092 19.7142 21.4092 20.2562ZM16.6423 20.0118C16.6423 19.1855 15.971 18.5131 15.1459 18.5131C14.3208 18.5131 13.6495 19.1854 13.6495 20.0118C13.6495 20.8382 14.3208 21.5105 15.1459 21.5105C15.971 21.5105 16.6423 20.8382 16.6423 20.0118Z" fill="#717579"/>
<path d="M20.6728 13.0351C21.2149 13.0351 21.6543 12.5957 21.6543 12.0537C21.6543 11.5117 21.2149 11.0723 20.6728 11.0723C20.1308 11.0723 19.6914 11.5117 19.6914 12.0537C19.6914 12.5957 20.1308 13.0351 20.6728 13.0351Z" fill="#717579"/>
</g>
<defs>
<clipPath id="clip0_74_2366">
<rect width="22.8406" height="22.8406" fill="white" transform="translate(0.583984 0.632812)"/>
</clipPath>
</defs>
</svg>
