<svg width="24" height="24" viewBox="0 0 24 24" fill="#717579" xmlns="http://www.w3.org/2000/svg">
<g clip-path="url(#clip0_74_2359)">
<path d="M19.4226 23.2763C19.2754 23.2763 19.1261 23.2431 18.9854 23.173C18.9752 23.1679 17.962 22.6636 16.8152 22.1677C14.7454 21.2726 14.1577 21.2272 14.0608 21.2272L12.6675 21.2273L9.75629 21.2272C4.64589 21.2272 0.488281 17.0169 0.488281 11.8418V9.82097C0.488281 4.64584 4.64589 0.435547 9.75629 0.435547H14.0608C19.1712 0.435547 23.3289 4.64584 23.3289 9.82097V19.0686C23.3289 19.6106 22.8894 20.05 22.3474 20.05C21.8054 20.05 21.366 19.6106 21.366 19.0686V9.82097C21.366 5.72814 18.0889 2.39841 14.0608 2.39841H9.75629C5.72819 2.39841 2.45114 5.72814 2.45114 9.82097V11.8418C2.45114 15.9346 5.72819 19.2643 9.75629 19.2643L12.6674 19.2643L14.0608 19.2643C14.4847 19.2643 15.313 19.3789 17.6023 20.3695C18.7968 20.8863 19.8185 21.395 19.8614 21.4164C20.3464 21.6584 20.5435 22.2476 20.3016 22.7327C20.1298 23.0771 19.7829 23.2763 19.4226 23.2763ZM17.9524 9.4218C17.9524 8.87978 17.513 8.44037 16.971 8.44037H8.09763C7.55561 8.44037 7.1162 8.87978 7.1162 9.4218C7.1162 9.96382 7.55561 10.4032 8.09763 10.4032H16.971C17.513 10.4032 17.9524 9.96382 17.9524 9.4218ZM12.7524 12.3941C12.7524 11.8521 12.313 11.4127 11.771 11.4127H8.09763C7.55561 11.4127 7.1162 11.8521 7.1162 12.3941C7.1162 12.9361 7.55561 13.3755 8.09763 13.3755H11.771C12.313 13.3755 12.7524 12.9362 12.7524 12.3941Z" fill="#717579"/>
<path d="M22.081 22.7597C22.6231 22.7597 23.0625 22.3203 23.0625 21.7783C23.0625 21.2363 22.6231 20.7969 22.081 20.7969C21.539 20.7969 21.0996 21.2363 21.0996 21.7783C21.0996 22.3203 21.539 22.7597 22.081 22.7597Z" fill="#717579"/>
</g>
<defs>
<clipPath id="clip0_74_2359">
<rect width="22.8406" height="22.8406" fill="white" transform="translate(0.488281 0.435547)"/>
</clipPath>
</defs>
</svg>
