<svg width="20" height="24" viewBox="0 0 20 24" fill="#717579" xmlns="http://www.w3.org/2000/svg">
<path d="M19.0132 7.69043C19.0131 7.68718 19.0131 7.68387 19.013 7.68062C19.012 7.66094 19.0104 7.64145 19.0083 7.62213C18.9834 7.3592 18.8708 7.10657 18.6778 6.90899L13.0712 1.16828C12.8557 0.947638 12.5708 0.825673 12.2766 0.813807C12.2598 0.812959 12.2428 0.812513 12.2257 0.812513H12.2162C12.2141 0.812557 12.2119 0.812468 12.2098 0.812513H6.73896C3.52062 0.812513 0.902344 3.43731 0.902344 6.66359V17.802C0.902344 21.0283 3.52062 23.6531 6.73896 23.6531H13.5777C14.1197 23.6531 14.5591 23.2137 14.5591 22.6716C14.5591 22.1295 14.1197 21.6901 13.5777 21.6901H6.73896C4.60296 21.6901 2.86521 19.9459 2.86521 17.802V6.66359C2.86521 4.51974 4.60296 2.77556 6.73896 2.77556H11.0484V5.57844C11.0484 7.41795 12.5404 8.9145 14.3743 8.9145H17.0513V17.802C17.0513 18.3523 16.9394 18.8836 16.7187 19.3813C16.4989 19.8768 16.7224 20.4567 17.2179 20.6765C17.3472 20.7338 17.4824 20.7611 17.6153 20.7611C17.9916 20.7611 18.3505 20.5434 18.513 20.1772C18.8456 19.4274 19.0142 18.6282 19.0142 17.802V7.72853C19.0142 7.71577 19.0137 7.7031 19.0132 7.69043ZM14.3743 6.95146C13.6227 6.95146 13.0112 6.33552 13.0112 5.57844V3.91625L15.9755 6.95146H14.3743ZM4.70419 16.7999C4.70419 16.2579 5.1436 15.8184 5.68562 15.8184H12.5195C13.0616 15.8184 13.501 16.2578 13.501 16.7999C13.501 17.342 13.0616 17.7815 12.5195 17.7815H5.68562C5.14355 17.7815 4.70419 17.3421 4.70419 16.7999ZM4.71891 13.7788C4.71891 13.2367 5.15832 12.7973 5.70034 12.7973H10.2879C10.8299 12.7973 11.2693 13.2367 11.2693 13.7788C11.2693 14.3209 10.8299 14.7603 10.2879 14.7603H5.70034C5.15827 14.7603 4.71891 14.3209 4.71891 13.7788ZM4.71891 10.7733C4.71891 10.2313 5.15832 9.79181 5.70034 9.79181H10.2879C10.8299 9.79181 11.2693 10.2312 11.2693 10.7733C11.2693 11.3154 10.8299 11.7549 10.2879 11.7549H5.70034C5.15827 11.7549 4.71891 11.3154 4.71891 10.7733Z" fill="#717579"/>
<path d="M16.6045 23.3398C17.1465 23.3398 17.5859 22.9004 17.5859 22.3584C17.5859 21.8164 17.1465 21.377 16.6045 21.377C16.0624 21.377 15.623 21.8164 15.623 22.3584C15.623 22.9004 16.0624 23.3398 16.6045 23.3398Z" fill="#717579"/>
</svg>
