<svg width="24" height="24" viewBox="0 0 24 24" fill="#717579" xmlns="http://www.w3.org/2000/svg">
<g clip-path="url(#clip0_74_2423)">
<path d="M21.0132 7.71387C21.0131 7.71061 21.0131 7.70731 21.013 7.70406C21.012 7.68438 21.0104 7.66489 21.0083 7.64557C20.9834 7.38264 20.8708 7.13001 20.6778 6.93243L15.0712 1.19172C14.8557 0.971076 14.5708 0.84911 14.2766 0.837244C14.2598 0.836396 14.2428 0.83595 14.2257 0.83595H14.2162C14.2141 0.835995 14.2119 0.835906 14.2098 0.83595H8.73896C5.52062 0.83595 2.90234 3.46075 2.90234 6.68702V17.8255C2.90234 21.0518 5.52062 23.6765 8.73896 23.6765H15.5777C16.1197 23.6765 16.5591 23.2371 16.5591 22.695C16.5591 22.153 16.1197 21.7135 15.5777 21.7135H8.73896C6.60296 21.7135 4.86521 19.9694 4.86521 17.8255V6.68702C4.86521 4.54318 6.60296 2.79899 8.73896 2.79899H13.0484V5.60187C13.0484 7.44139 14.5404 8.93794 16.3743 8.93794H19.0513V17.8255C19.0513 18.3757 18.9394 18.9071 18.7187 19.4047C18.4989 19.9002 18.7224 20.4801 19.2179 20.6999C19.3472 20.7573 19.4824 20.7845 19.6153 20.7845C19.9916 20.7845 20.3505 20.5668 20.513 20.2007C20.8456 19.4508 21.0142 18.6517 21.0142 17.8255V7.75197C21.0142 7.73921 21.0137 7.72654 21.0132 7.71387ZM16.3743 6.9749C15.6227 6.9749 15.0112 6.35896 15.0112 5.60187V3.93968L17.9755 6.9749H16.3743ZM6.70419 16.8234C6.70419 16.2813 7.1436 15.8419 7.68562 15.8419H14.5195C15.0616 15.8419 15.501 16.2813 15.501 16.8234C15.501 17.3654 15.0616 17.8049 14.5195 17.8049H7.68562C7.14355 17.8049 6.70419 17.3655 6.70419 16.8234ZM6.71891 13.8022C6.71891 13.2602 7.15832 12.8207 7.70034 12.8207H12.2879C12.8299 12.8207 13.2693 13.2601 13.2693 13.8022C13.2693 14.3443 12.8299 14.7837 12.2879 14.7837H7.70034C7.15827 14.7837 6.71891 14.3443 6.71891 13.8022ZM6.71891 10.7968C6.71891 10.2547 7.15832 9.81525 7.70034 9.81525H12.2879C12.8299 9.81525 13.2693 10.2547 13.2693 10.7968C13.2693 11.3388 12.8299 11.7783 12.2879 11.7783H7.70034C7.15827 11.7783 6.71891 11.3389 6.71891 10.7968Z" fill="#717579"/>
<path d="M18.6045 23.3652C19.1465 23.3652 19.5859 22.9258 19.5859 22.3838C19.5859 21.8417 19.1465 21.4023 18.6045 21.4023C18.0624 21.4023 17.623 21.8417 17.623 22.3838C17.623 22.9258 18.0624 23.3652 18.6045 23.3652Z" fill="#717579"/>
</g>
<defs>
<clipPath id="clip0_74_2423">
<rect width="22.8406" height="22.8406" fill="white" transform="translate(0.537109 0.835938)"/>
</clipPath>
</defs>
</svg>
