<svg width="24" height="23" viewBox="0 0 24 23" fill="#717579" xmlns="http://www.w3.org/2000/svg">
<path d="M19.4226 22.8661C19.2754 22.8661 19.1261 22.833 18.9854 22.7628C18.9752 22.7578 17.962 22.2534 16.8152 21.7575C14.7454 20.8624 14.1577 20.8171 14.0608 20.8171L12.6675 20.8171L9.75629 20.8171C4.64589 20.817 0.488281 16.6067 0.488281 11.4316V9.41082C0.488281 4.23569 4.64589 0.0253906 9.75629 0.0253906H14.0608C19.1712 0.0253906 23.3289 4.23569 23.3289 9.41082V18.6584C23.3289 19.2004 22.8894 19.6398 22.3474 19.6398C21.8054 19.6398 21.366 19.2004 21.366 18.6584V9.41082C21.366 5.31798 18.0889 1.98825 14.0608 1.98825H9.75629C5.72819 1.98825 2.45114 5.31798 2.45114 9.41082V11.4316C2.45114 15.5245 5.72819 18.8541 9.75629 18.8541L12.6674 18.8542L14.0608 18.8541C14.4847 18.8541 15.313 18.9687 17.6023 19.9593C18.7968 20.4762 19.8185 20.9848 19.8614 21.0063C20.3464 21.2482 20.5435 21.8375 20.3016 22.3225C20.1298 22.6669 19.7829 22.8661 19.4226 22.8661ZM17.9524 9.01164C17.9524 8.46962 17.513 8.03021 16.971 8.03021H8.09763C7.55561 8.03021 7.1162 8.46962 7.1162 9.01164C7.1162 9.55366 7.55561 9.99307 8.09763 9.99307H16.971C17.513 9.99307 17.9524 9.55366 17.9524 9.01164ZM12.7524 11.984C12.7524 11.4419 12.313 11.0025 11.771 11.0025H8.09763C7.55561 11.0025 7.1162 11.4419 7.1162 11.984C7.1162 12.526 7.55561 12.9654 8.09763 12.9654H11.771C12.313 12.9654 12.7524 12.526 12.7524 11.984Z" fill="#717579"/>
<path d="M22.081 22.3496C22.6231 22.3496 23.0625 21.9102 23.0625 21.3681C23.0625 20.8261 22.6231 20.3867 22.081 20.3867C21.539 20.3867 21.0996 20.8261 21.0996 21.3681C21.0996 21.9102 21.539 22.3496 22.081 22.3496Z" fill="#717579"/>
</svg>
