<svg fill="none" height="16" viewBox="0 0 16 16" width="16" xmlns="http://www.w3.org/2000/svg"><path d="m14 8c0 .13261-.0527.25979-.1464.35355-.0938.09377-.221.14645-.3536.14645h-5v5c0 .1326-.05268.2598-.14645.3536-.09376.0937-.22094.1464-.35355.1464s-.25979-.0527-.35355-.1464c-.09377-.0938-.14645-.221-.14645-.3536v-5h-5c-.13261 0-.25979-.05268-.35355-.14645-.09377-.09376-.14645-.22094-.14645-.35355s.05268-.25979.14645-.35355c.09376-.09377.22094-.14645.35355-.14645h5v-5c0-.13261.05268-.25979.14645-.35355.09376-.09377.22094-.14645.35355-.14645s.25979.05268.35355.14645c.09377.09376.14645.22094.14645.35355v5h5c.1326 0 .2598.05268.3536.14645.0937.09376.1464.22094.1464.35355z" fill="#000"/></svg>