<svg width="20" height="20" viewBox="0 0 20 20" fill="none" xmlns="http://www.w3.org/2000/svg">
<path d="M19.5279 18.4706L14.8338 13.7774C16.1944 12.144 16.8728 10.049 16.728 7.92813C16.5832 5.80726 15.6263 3.82387 14.0564 2.39054C12.4865 0.95721 10.4245 0.184304 8.2992 0.232603C6.17394 0.280903 4.14912 1.14669 2.64595 2.64986C1.14278 4.15303 0.276997 6.17785 0.228697 8.3031C0.180397 10.4284 0.953304 12.4904 2.38663 14.0603C3.81996 15.6302 5.80336 16.5871 7.92422 16.7319C10.0451 16.8767 12.1401 16.1983 13.7735 14.8378L18.4667 19.5318C18.5363 19.6015 18.6191 19.6568 18.7101 19.6945C18.8012 19.7322 18.8987 19.7516 18.9973 19.7516C19.0958 19.7516 19.1934 19.7322 19.2845 19.6945C19.3755 19.6568 19.4582 19.6015 19.5279 19.5318C19.5976 19.4621 19.6529 19.3794 19.6906 19.2884C19.7283 19.1973 19.7477 19.0997 19.7477 19.0012C19.7477 18.9026 19.7283 18.8051 19.6906 18.714C19.6529 18.623 19.5976 18.5403 19.5279 18.4706ZM1.74728 8.50119C1.74728 7.16617 2.14317 5.86112 2.88486 4.75109C3.62656 3.64106 4.68077 2.7759 5.91417 2.265C7.14757 1.75411 8.50477 1.62044 9.81414 1.88089C11.1235 2.14134 12.3263 2.78422 13.2703 3.72822C14.2143 4.67222 14.8571 5.87496 15.1176 7.18433C15.378 8.4937 15.2444 9.8509 14.7335 11.0843C14.2226 12.3177 13.3574 13.3719 12.2474 14.1136C11.1374 14.8553 9.83231 15.2512 8.49728 15.2512C6.70768 15.2492 4.99195 14.5374 3.72651 13.272C2.46107 12.0065 1.74927 10.2908 1.74728 8.50119Z" fill="#4D4D4D"/>
</svg>
