<svg width="24" height="24" viewBox="0 0 24 24" fill="#717579" xmlns="http://www.w3.org/2000/svg">
<g clip-path="url(#clip0_74_2375)">
<path d="M21.0132 7.39551C21.0131 7.39225 21.0131 7.38895 21.013 7.3857C21.012 7.36602 21.0104 7.34653 21.0083 7.32721C20.9834 7.06428 20.8708 6.81165 20.6778 6.61407L15.0712 0.87336C14.8557 0.652716 14.5708 0.530751 14.2766 0.518885C14.2598 0.518037 14.2428 0.517591 14.2257 0.517591H14.2162C14.2141 0.517636 14.2119 0.517546 14.2098 0.517591H8.73896C5.52062 0.517591 2.90234 3.14239 2.90234 6.36866V17.5071C2.90234 20.7334 5.52062 23.3582 8.73896 23.3582H15.5777C16.1197 23.3582 16.5591 22.9188 16.5591 22.3767C16.5591 21.8346 16.1197 21.3951 15.5777 21.3951H8.73896C6.60296 21.3951 4.86521 19.651 4.86521 17.5071V6.36866C4.86521 4.22482 6.60296 2.48063 8.73896 2.48063H13.0484V5.28351C13.0484 7.12303 14.5404 8.61958 16.3743 8.61958H19.0513V17.5071C19.0513 18.0574 18.9394 18.5887 18.7187 19.0864C18.4989 19.5819 18.7224 20.1618 19.2179 20.3815C19.3472 20.4389 19.4824 20.4661 19.6153 20.4661C19.9916 20.4661 20.3505 20.2485 20.513 19.8823C20.8456 19.1325 21.0142 18.3333 21.0142 17.5071V7.43361C21.0142 7.42085 21.0137 7.40818 21.0132 7.39551ZM16.3743 6.65654C15.6227 6.65654 15.0112 6.0406 15.0112 5.28351V3.62132L17.9755 6.65654H16.3743ZM6.70419 16.505C6.70419 15.963 7.1436 15.5235 7.68562 15.5235H14.5195C15.0616 15.5235 15.501 15.9629 15.501 16.505C15.501 17.0471 15.0616 17.4865 14.5195 17.4865H7.68562C7.14355 17.4865 6.70419 17.0471 6.70419 16.505ZM6.71891 13.4839C6.71891 12.9418 7.15832 12.5023 7.70034 12.5023H12.2879C12.8299 12.5023 13.2693 12.9418 13.2693 13.4839C13.2693 14.0259 12.8299 14.4654 12.2879 14.4654H7.70034C7.15827 14.4654 6.71891 14.0259 6.71891 13.4839ZM6.71891 10.4784C6.71891 9.93635 7.15832 9.49689 7.70034 9.49689H12.2879C12.8299 9.49689 13.2693 9.9363 13.2693 10.4784C13.2693 11.0205 12.8299 11.4599 12.2879 11.4599H7.70034C7.15827 11.4599 6.71891 11.0205 6.71891 10.4784Z" fill="#717579"/>
<path d="M18.6045 23.0468C19.1465 23.0468 19.5859 22.6074 19.5859 22.0654C19.5859 21.5234 19.1465 21.084 18.6045 21.084C18.0624 21.084 17.623 21.5234 17.623 22.0654C17.623 22.6074 18.0624 23.0468 18.6045 23.0468Z" fill="#717579"/>
</g>
<defs>
<clipPath id="clip0_74_2375">
<rect width="22.8406" height="22.8406" fill="white" transform="translate(0.537109 0.517578)"/>
</clipPath>
</defs>
</svg>
