<svg width="24" height="22" viewBox="0 0 24 22" fill="#717579" xmlns="http://www.w3.org/2000/svg">
<g clip-path="url(#clip0_74_2411)">
<path d="M21.0132 6.56283C21.0131 6.55976 21.0131 6.55665 21.013 6.55358C21.012 6.53502 21.0104 6.51662 21.0083 6.4984C20.9834 6.25035 20.8708 6.01202 20.6778 5.82562L15.0712 0.409862C14.8557 0.201708 14.5708 0.0866461 14.2766 0.0754514C14.2598 0.0746518 14.2428 0.0742309 14.2257 0.0742309H14.2162C14.2141 0.074273 14.2119 0.0741888 14.2098 0.0742309H8.73896C5.52062 0.0742309 2.90234 2.55045 2.90234 5.59411V16.1021C2.90234 19.1457 5.52062 21.622 8.73896 21.622H15.5777C16.1197 21.622 16.5591 21.2074 16.5591 20.696C16.5591 20.1846 16.1197 19.77 15.5777 19.77H8.73896C6.60296 19.77 4.86521 18.1246 4.86521 16.1021V5.59411C4.86521 3.57161 6.60296 1.92616 8.73896 1.92616H13.0484V4.57038C13.0484 6.30578 14.5404 7.71762 16.3743 7.71762H19.0513V16.1021C19.0513 16.6212 18.9394 17.1224 18.7187 17.5919C18.4989 18.0594 18.7224 18.6065 19.2179 18.8138C19.3472 18.8679 19.4824 18.8936 19.6153 18.8936C19.9916 18.8936 20.3505 18.6883 20.513 18.3428C20.8456 17.6354 21.0142 16.8815 21.0142 16.1021V6.59878C21.0142 6.58674 21.0137 6.57479 21.0132 6.56283ZM16.3743 5.86569C15.6227 5.86569 15.0112 5.28462 15.0112 4.57038V3.00228L17.9755 5.86569H16.3743ZM6.70419 15.1567C6.70419 14.6453 7.1436 14.2308 7.68562 14.2308H14.5195C15.0616 14.2308 15.501 14.6453 15.501 15.1567C15.501 15.6681 15.0616 16.0827 14.5195 16.0827H7.68562C7.14355 16.0827 6.70419 15.6681 6.70419 15.1567ZM6.71891 12.3066C6.71891 11.7952 7.15832 11.3806 7.70034 11.3806H12.2879C12.8299 11.3806 13.2693 11.7951 13.2693 12.3066C13.2693 12.8179 12.8299 13.2325 12.2879 13.2325H7.70034C7.15827 13.2325 6.71891 12.8179 6.71891 12.3066ZM6.71891 9.47123C6.71891 8.95985 7.15832 8.54527 7.70034 8.54527H12.2879C12.8299 8.54527 13.2693 8.95981 13.2693 9.47123C13.2693 9.98261 12.8299 10.3972 12.2879 10.3972H7.70034C7.15827 10.3972 6.71891 9.98265 6.71891 9.47123Z" fill="#717579"/>
<path d="M18.6045 21.3283C19.1465 21.3283 19.5859 20.9138 19.5859 20.4024C19.5859 19.8911 19.1465 19.4766 18.6045 19.4766C18.0624 19.4766 17.623 19.8911 17.623 20.4024C17.623 20.9138 18.0624 21.3283 18.6045 21.3283Z" fill="#717579"/>
</g>
<defs>
<clipPath id="clip0_74_2411">
<rect width="22.8406" height="21.5477" fill="white" transform="translate(0.537109 0.0742188)"/>
</clipPath>
</defs>
</svg>
