<svg width="32" height="32" viewBox="0 0 32 32" fill="none" xmlns="http://www.w3.org/2000/svg">
<path d="M18.0017 9.99954C18.0017 9.73432 18.1071 9.47997 18.2946 9.29243C18.4822 9.1049 18.7365 8.99954 19.0017 8.99954H31.0017C31.267 8.99954 31.5213 9.1049 31.7088 9.29243C31.8964 9.47997 32.0017 9.73432 32.0017 9.99954C32.0017 10.2648 31.8964 10.5191 31.7088 10.7066C31.5213 10.8942 31.267 10.9995 31.0017 10.9995H19.0017C18.7365 10.9995 18.4822 10.8942 18.2946 10.7066C18.1071 10.5191 18.0017 10.2648 18.0017 9.99954ZM31.0017 14.9995H19.0017C18.7365 14.9995 18.4822 15.1049 18.2946 15.2924C18.1071 15.48 18.0017 15.7343 18.0017 15.9995C18.0017 16.2648 18.1071 16.5191 18.2946 16.7066C18.4822 16.8942 18.7365 16.9995 19.0017 16.9995H31.0017C31.267 16.9995 31.5213 16.8942 31.7088 16.7066C31.8964 16.5191 32.0017 16.2648 32.0017 15.9995C32.0017 15.7343 31.8964 15.48 31.7088 15.2924C31.5213 15.1049 31.267 14.9995 31.0017 14.9995ZM31.0017 20.9995H22.0017C21.7365 20.9995 21.4822 21.1049 21.2946 21.2924C21.1071 21.48 21.0017 21.7343 21.0017 21.9995C21.0017 22.2648 21.1071 22.5191 21.2946 22.7066C21.4822 22.8942 21.7365 22.9995 22.0017 22.9995H31.0017C31.267 22.9995 31.5213 22.8942 31.7088 22.7066C31.8964 22.5191 32.0017 22.2648 32.0017 21.9995C32.0017 21.7343 31.8964 21.48 31.7088 21.2924C31.5213 21.1049 31.267 20.9995 31.0017 20.9995ZM18.9705 23.7495C19.0032 23.8768 19.0105 24.0092 18.992 24.1392C18.9735 24.2693 18.9296 24.3944 18.8627 24.5074C18.7958 24.6205 18.7074 24.7193 18.6023 24.7981C18.4973 24.877 18.3777 24.9344 18.2505 24.967C18.169 24.989 18.0849 24.9999 18.0005 24.9995C17.7787 24.9997 17.5632 24.926 17.3878 24.7903C17.2124 24.6545 17.0872 24.4643 17.0317 24.2495C16.2617 21.257 13.2392 18.9995 10.0005 18.9995C6.76174 18.9995 3.73924 21.2558 2.96924 24.2495C2.90294 24.5065 2.73728 24.7265 2.50872 24.8613C2.28016 24.9961 2.00742 25.0346 1.75049 24.9683C1.49356 24.902 1.2735 24.7363 1.1387 24.5078C1.00391 24.2792 0.965437 24.0065 1.03174 23.7495C1.73049 21.0358 3.76174 18.8383 6.33924 17.7495C5.34678 16.9851 4.61848 15.9292 4.25647 14.7299C3.89446 13.5307 3.91691 12.2481 4.32067 11.0623C4.72443 9.8764 5.48924 8.84664 6.50785 8.11742C7.52646 7.3882 8.74777 6.99609 10.0005 6.99609C11.2532 6.99609 12.4745 7.3882 13.4931 8.11742C14.5117 8.84664 15.2766 9.8764 15.6803 11.0623C16.0841 12.2481 16.1065 13.5307 15.7445 14.7299C15.3825 15.9292 14.6542 16.9851 13.6617 17.7495C16.2405 18.8383 18.2717 21.0358 18.9705 23.7495ZM10.0017 16.9995C10.7929 16.9995 11.5662 16.7649 12.224 16.3254C12.8818 15.8859 13.3945 15.2612 13.6973 14.5303C14 13.7994 14.0792 12.9951 13.9249 12.2192C13.7705 11.4433 13.3896 10.7305 12.8302 10.1711C12.2708 9.6117 11.558 9.23074 10.7821 9.0764C10.0062 8.92206 9.20191 9.00127 8.47101 9.30402C7.7401 9.60677 7.11539 10.1195 6.67586 10.7773C6.23634 11.4351 6.00174 12.2084 6.00174 12.9995C6.00174 14.0604 6.42317 15.0778 7.17331 15.828C7.92346 16.5781 8.94088 16.9995 10.0017 16.9995Z" fill="#666666"/>
</svg>
