<svg width="24" height="19" viewBox="0 0 24 19" fill="#717579" xmlns="http://www.w3.org/2000/svg">
<path d="M13.5365 14.6657C13.5147 14.6657 13.4928 14.665 13.4708 14.6635C13.0607 14.6371 12.7119 14.3676 12.5822 13.9768L10.4983 7.67533L8.7331 11.8422C8.58625 12.189 8.26206 12.4228 7.88716 12.4523C7.51207 12.4814 7.15595 12.3015 6.95685 11.9821L5.04658 8.9255C4.75934 8.46583 4.89906 7.86038 5.35872 7.57313C5.81834 7.28593 6.42384 7.42556 6.71113 7.88527L7.64474 9.37914L9.68438 4.56433C9.84654 4.1814 10.234 3.9355 10.6494 3.95201C11.0645 3.96878 11.4314 4.24563 11.5621 4.64084L13.7016 11.1101L15.1916 8.02321C15.3851 7.6384 15.7788 7.40379 16.2039 7.41726L18.3896 7.44568C18.9316 7.45273 19.3653 7.89781 19.3582 8.43978C19.3512 8.98171 18.9058 9.41577 18.3641 9.40836L16.7127 9.38695L14.4393 14.0974C14.2705 14.4477 13.9209 14.6657 13.5365 14.6657ZM12.6718 13.2437C12.6716 13.2441 12.6715 13.2444 12.6713 13.2447L12.6718 13.2437ZM8.62091 10.941L8.62203 10.9429C8.62167 10.9423 8.62127 10.9417 8.62091 10.941ZM19.0083 17.4856C19.0083 16.9436 18.5689 16.5042 18.0269 16.5042H5.79028C3.94907 16.5042 2.45114 15.007 2.45114 13.1667V5.40582C2.45114 3.5655 3.94907 2.06833 5.79028 2.06833H18.0269C19.868 2.06833 21.366 3.56555 21.366 5.40582V13.1667C21.366 13.5806 21.2914 13.9841 21.1442 14.3659C20.9493 14.8717 21.2013 15.4397 21.7071 15.6346C22.2131 15.8296 22.7809 15.5775 22.9758 15.0718C23.21 14.4638 23.3288 13.8229 23.3288 13.1667V5.40582C23.3288 2.48316 20.9504 0.105469 18.0268 0.105469H5.79028C2.86673 0.105424 0.488281 2.48316 0.488281 5.40578V13.1667C0.488281 16.0893 2.86673 18.4671 5.79028 18.4671H18.0269C18.5689 18.4671 19.0083 18.0276 19.0083 17.4856Z" fill="#717579"/>
<path d="M20.876 18.1308C21.418 18.1308 21.8574 17.6914 21.8574 17.1494C21.8574 16.6074 21.418 16.168 20.876 16.168C20.3339 16.168 19.8945 16.6074 19.8945 17.1494C19.8945 17.6914 20.3339 18.1308 20.876 18.1308Z" fill="#717579"/>
</svg>
