<svg width="32" height="32" viewBox="0 0 32 32" fill="none" xmlns="http://www.w3.org/2000/svg">
<path d="M30 23.0015H29V7.23896L30.2087 6.97896C30.3399 6.95435 30.4649 6.90373 30.5762 6.83008C30.6875 6.75643 30.783 6.66124 30.8569 6.55012C30.9309 6.43901 30.9818 6.31421 31.0068 6.18308C31.0317 6.05196 31.0302 5.91717 31.0022 5.78665C30.9743 5.65613 30.9205 5.53253 30.844 5.42314C30.7675 5.31374 30.6699 5.22076 30.5569 5.14968C30.444 5.0786 30.3179 5.03086 30.1862 5.00927C30.0545 4.98767 29.9198 4.99267 29.79 5.02396L1.79 11.024C1.54878 11.076 1.33533 11.2154 1.19069 11.4154C1.04606 11.6153 0.980465 11.8617 1.00652 12.1071C1.03258 12.3525 1.14846 12.5795 1.33186 12.7447C1.51526 12.9098 1.75323 13.0012 2 13.0015C2.07101 13.0013 2.14181 12.9938 2.21125 12.979L3 12.8102V23.0015H2C1.73478 23.0015 1.48043 23.1068 1.29289 23.2943C1.10536 23.4819 1 23.7362 1 24.0015C1 24.2667 1.10536 24.521 1.29289 24.7086C1.48043 24.8961 1.73478 25.0015 2 25.0015H30C30.2652 25.0015 30.5196 24.8961 30.7071 24.7086C30.8946 24.521 31 24.2667 31 24.0015C31 23.7362 30.8946 23.4819 30.7071 23.2943C30.5196 23.1068 30.2652 23.0015 30 23.0015ZM5 12.3765L27 7.66771V23.0015H24V16.0015C24 15.7362 23.8946 15.4819 23.7071 15.2944C23.5196 15.1068 23.2652 15.0015 23 15.0015H9C8.73478 15.0015 8.48043 15.1068 8.29289 15.2944C8.10536 15.4819 8 15.7362 8 16.0015V23.0015H5V12.3765ZM22 19.0015H10V17.0015H22V19.0015ZM10 21.0015H22V23.0015H10V21.0015Z" fill="#666666"/>
</svg>
